# xmcd CD database file
#
# Track frame offsets:
#	150
#	13456
#	44332
#	90614
#	115528
#	155613
#	174491
#	198158
#	217740
#	246548
#	268176
#	284593
#	317815
#
# Disc length: 4351 seconds
#
# Revision: 0
# Processed by: cddbd v1.5.1PL0 Copyright (c) Steve Scherf et al.
# Submitted via: CDex 1.51
#
DISCID=bc10fd0d
DTITLE=Marron - 秋桜の空に 〜虹空の初子〜
DYEAR=2004
DGENRE=Seiyu
TTITLE0=天使光臨の儀式
TTITLE1=天使の涙
TTITLE2=天使の告白
TTITLE3=幸せの時
TTITLE4=綻びる記憶
TTITLE5=過去の罪
TTITLE6=ゆるやかな堕落
TTITLE7=悲嘆の再開
TTITLE8=友達
TTITLE9=歓喜と絶望と
TTITLE10=水晶はやさしく輝いて
TTITLE11=エピローグ　虹空の初子
TTITLE12=エンディングテーマ　おもいでを空に
EXTD=YEAR: 2004
EXTT0=
EXTT1=
EXTT2=
EXTT3=
EXTT4=
EXTT5=
EXTT6=
EXTT7=
EXTT8=
EXTT9=
EXTT10=
EXTT11=
EXTT12=
PLAYORDER=
